<svg xmlns="http://www.w3.org/2000/svg" xmlns:xlink="http://www.w3.org/1999/xlink" width="500" zoomAndPan="magnify" viewBox="0 0 375 299.999988" height="400" preserveAspectRatio="xMidYMid meet" version="1.0"><defs><clipPath id="afdbd1df60"><path d="M 18.675781 10.226562 L 351.285156 10.226562 L 351.285156 300 L 18.675781 300 Z M 18.675781 10.226562 " clip-rule="nonzero"/></clipPath><clipPath id="0b4ef80fcb"><path d="M 185.125 10.226562 C 93.199219 10.226562 18.675781 84.75 18.675781 176.675781 C 18.675781 268.605469 93.199219 343.128906 185.125 343.128906 C 277.054688 343.128906 351.578125 268.605469 351.578125 176.675781 C 351.578125 84.75 277.054688 10.226562 185.125 10.226562 Z M 185.125 10.226562 " clip-rule="nonzero"/></clipPath><clipPath id="4552da3942"><path d="M 65.039062 56.589844 L 305.21875 56.589844 L 305.21875 296.769531 L 65.039062 296.769531 Z M 65.039062 56.589844 " clip-rule="nonzero"/></clipPath><clipPath id="9fe77ce64d"><path d="M 185.128906 56.589844 C 118.804688 56.589844 65.039062 110.355469 65.039062 176.679688 C 65.039062 243.003906 118.804688 296.769531 185.128906 296.769531 C 251.453125 296.769531 305.21875 243.003906 305.21875 176.679688 C 305.21875 110.355469 251.453125 56.589844 185.128906 56.589844 Z M 185.128906 56.589844 " clip-rule="nonzero"/></clipPath><clipPath id="42e68ffbe7"><path d="M 52 148 L 375 148 L 375 300 L 52 300 Z M 52 148 " clip-rule="nonzero"/></clipPath><clipPath id="69b76928bb"><path d="M 224.9375 148.859375 L 439.722656 386.621094 L 267.773438 541.949219 L 52.988281 304.1875 Z M 224.9375 148.859375 " clip-rule="nonzero"/></clipPath><clipPath id="d7571d294f"><path d="M 224.9375 148.859375 L 439.722656 386.621094 L 267.773438 541.949219 L 52.988281 304.1875 Z M 224.9375 148.859375 " clip-rule="nonzero"/></clipPath><clipPath id="bebd7de755"><path d="M 0 141 L 331 141 L 331 300 L 0 300 Z M 0 141 " clip-rule="nonzero"/></clipPath><clipPath id="d523048102"><path d="M -64.722656 380.246094 L 150.285156 141.109375 L 330.128906 302.804688 L 115.121094 541.945312 Z M -64.722656 380.246094 " clip-rule="nonzero"/></clipPath><clipPath id="e79c5871a5"><path d="M -64.722656 380.246094 L 150.285156 141.109375 L 330.128906 302.804688 L 115.121094 541.945312 Z M -64.722656 380.246094 " clip-rule="nonzero"/></clipPath><clipPath id="94eb1f8ab9"><path d="M 97 31.507812 L 205 31.507812 L 205 274 L 97 274 Z M 97 31.507812 " clip-rule="nonzero"/></clipPath><clipPath id="26b263b160"><path d="M 69 104 L 139 104 L 139 297.59375 L 69 297.59375 Z M 69 104 " clip-rule="nonzero"/></clipPath><clipPath id="0437ae04ad"><path d="M 52.996094 150 L 317.375 150 L 317.375 297.59375 L 52.996094 297.59375 Z M 52.996094 150 " clip-rule="nonzero"/></clipPath></defs><g clip-path="url(#afdbd1df60)"><g clip-path="url(#0b4ef80fcb)"><path stroke-linecap="butt" transform="matrix(1.705687, 0, 0, 1.705687, 18.675152, 10.225916)" fill="none" stroke-linejoin="miter" d="M 97.585196 0.00037914 C 43.691512 0.00037914 0.000368693 43.691523 0.000368693 97.585206 C 0.000368693 151.481179 43.691512 195.172323 97.585196 195.172323 C 151.481169 195.172323 195.172313 151.481179 195.172313 97.585206 C 195.172313 43.691523 151.481169 0.00037914 97.585196 0.00037914 Z M 97.585196 0.00037914 " stroke="#b2926b" stroke-width="7.914696" stroke-opacity="1" stroke-miterlimit="4"/></g></g><g clip-path="url(#4552da3942)"><g clip-path="url(#9fe77ce64d)"><path fill="#2c2d2d" d="M 65.039062 56.589844 L 305.21875 56.589844 L 305.21875 296.769531 L 65.039062 296.769531 Z M 65.039062 56.589844 " fill-opacity="1" fill-rule="nonzero"/></g></g><g clip-path="url(#42e68ffbe7)"><g clip-path="url(#69b76928bb)"><g clip-path="url(#d7571d294f)"><path fill="#ffffff" d="M 224.9375 148.859375 L 439.722656 386.621094 L 267.773438 541.949219 L 52.988281 304.1875 Z M 224.9375 148.859375 " fill-opacity="1" fill-rule="nonzero"/></g></g></g><g clip-path="url(#bebd7de755)"><g clip-path="url(#d523048102)"><g clip-path="url(#e79c5871a5)"><path fill="#ffffff" d="M -64.722656 380.246094 L 150.285156 141.109375 L 330.128906 302.804688 L 115.121094 541.945312 Z M -64.722656 380.246094 " fill-opacity="1" fill-rule="nonzero"/></g></g></g><path fill="#b2926b" d="M 183.644531 32.605469 L 182.996094 164.734375 L 182.847656 181.820312 L 143.132812 225.679688 L 126.097656 244.515625 L 124.648438 246.113281 L 118.855469 252.558594 L 118.855469 56.882812 Z M 183.644531 32.605469 " fill-opacity="1" fill-rule="nonzero"/><g clip-path="url(#94eb1f8ab9)"><path stroke-linecap="butt" transform="matrix(0.49955, 0, 0, 0.49955, -69.176956, -83.839973)" fill="none" stroke-linejoin="miter" d="M 506.098439 233.100664 L 504.800396 497.59651 L 504.503253 531.799166 L 425.002018 619.59693 L 390.901017 657.302738 L 387.999968 660.500929 L 376.403595 673.403165 L 376.403595 281.699087 Z M 506.098439 233.100664 " stroke="#ffffff" stroke-width="3" stroke-opacity="1" stroke-miterlimit="10"/></g><path stroke-linecap="butt" transform="matrix(0.49955, 0, 0, 0.49955, -69.176956, -83.839973)" fill-opacity="1" fill="#b2926b" fill-rule="nonzero" stroke-linejoin="miter" d="M 654.497616 369.903467 L 654.497616 687.501791 L 526.100815 545.600649 L 525.702019 497.59651 L 524.802772 321.297224 Z M 654.497616 369.903467 " stroke="#ffffff" stroke-width="3" stroke-opacity="1" stroke-miterlimit="10"/><path stroke-linecap="butt" transform="matrix(0.49955, 0, 0, 0.49955, -69.176956, -83.839973)" fill-opacity="1" fill="#2c2d2d" fill-rule="nonzero" stroke-linejoin="miter" d="M 425.002018 461.60318 L 425.002018 619.59693 L 390.901017 657.302738 L 390.901017 601.901317 L 390.603874 413.301899 Z M 425.002018 461.60318 " stroke="#ffffff" stroke-width="2" stroke-opacity="1" stroke-miterlimit="10"/><path fill="#2c2d2d" d="M 124.648438 118.925781 L 124.648438 246.113281 L 118.855469 252.558594 L 83.933594 290.972656 L 83.933594 118.925781 Z M 124.648438 118.925781 " fill-opacity="1" fill-rule="nonzero"/><g clip-path="url(#26b263b160)"><path stroke-linecap="butt" transform="matrix(0.49955, 0, 0, 0.49955, -69.176956, -83.839973)" fill="none" stroke-linejoin="miter" d="M 387.999968 405.896797 L 387.999968 660.500929 L 376.403595 673.403165 L 306.496932 750.300494 L 306.496932 405.896797 Z M 387.999968 405.896797 " stroke="#ffffff" stroke-width="2" stroke-opacity="1" stroke-miterlimit="10"/></g><path stroke-linecap="butt" transform="matrix(0.49955, 0, 0, 0.49955, -69.176956, -83.839973)" fill-opacity="1" fill="#2c2d2d" fill-rule="nonzero" stroke-linejoin="miter" d="M 647.999581 628.597217 L 610.700388 628.300075 L 589.501623 607.101309 L 589.798765 522.697225 L 648.703339 523.10384 Z M 647.999581 628.597217 " stroke="#ffffff" stroke-width="2" stroke-opacity="1" stroke-miterlimit="10"/><path fill="#2c2d2d" d="M 315.976562 296.269531 L 290.898438 296.269531 L 257.777344 259.601562 L 193.636719 188.714844 L 185.09375 179.371094 L 182.847656 181.820312 L 143.132812 225.679688 L 126.097656 244.515625 L 124.648438 246.113281 L 118.855469 252.558594 L 83.933594 290.972656 L 79.289062 296.269531 L 54.210938 296.269531 L 83.933594 263.296875 L 118.855469 224.730469 L 124.648438 218.4375 L 126.097656 216.839844 L 143.132812 197.855469 L 172.554688 165.386719 L 173.203125 164.734375 L 196.984375 164.734375 L 197.632812 165.386719 L 225.308594 196.109375 L 254.53125 228.277344 L 257.777344 231.976562 Z M 315.976562 296.269531 " fill-opacity="1" fill-rule="nonzero"/><g clip-path="url(#0437ae04ad)"><path stroke-linecap="butt" transform="matrix(0.49955, 0, 0, 0.49955, -69.176956, -83.839973)" fill="none" stroke-linejoin="miter" d="M 771.000901 760.903787 L 720.799472 760.903787 L 654.497616 687.501791 L 526.100815 545.600649 L 508.999487 526.896316 L 504.503253 531.799166 L 425.002018 619.59693 L 390.901017 657.302738 L 387.999968 660.500929 L 376.403595 673.403165 L 306.496932 750.300494 L 297.199502 760.903787 L 246.998073 760.903787 L 306.496932 694.899073 L 376.403595 617.696782 L 387.999968 605.099508 L 390.901017 601.901317 L 425.002018 563.898366 L 483.898773 498.902373 L 485.196816 497.59651 L 532.802159 497.59651 L 534.100202 498.902373 L 589.501623 560.403033 L 647.999581 624.796922 L 654.497616 632.202024 Z M 771.000901 760.903787 " stroke="#ffffff" stroke-width="2" stroke-opacity="1" stroke-miterlimit="10"/></g><path stroke-linecap="butt" transform="matrix(0.49955, 0, 0, 0.49955, -69.176956, -83.839973)" fill-opacity="1" fill="#2c2d2d" fill-rule="nonzero" stroke-linejoin="miter" d="M 535.398245 497.59651 L 534.100202 498.902373 L 532.802159 497.59651 Z M 535.398245 497.59651 " stroke="#ffffff" stroke-width="2" stroke-opacity="1" stroke-miterlimit="10"/><path stroke-linecap="butt" transform="matrix(0.49955, 0, 0, 0.49955, -69.176956, -83.839973)" fill-opacity="1" fill="#2c2d2d" fill-rule="nonzero" stroke-linejoin="miter" d="M 485.196816 497.59651 L 483.898773 498.902373 L 482.60073 497.59651 Z M 485.196816 497.59651 " stroke="#ffffff" stroke-width="2" stroke-opacity="1" stroke-miterlimit="10"/><path fill="#ffffff" d="M 90.230469 144.503906 L 101.167969 144.503906 L 101.167969 155.945312 L 90.230469 155.945312 Z M 90.230469 144.503906 " fill-opacity="1" fill-rule="nonzero"/><path fill="#ffffff" d="M 106.464844 145.003906 L 117.40625 145.003906 L 117.40625 156.445312 L 106.464844 156.445312 Z M 106.464844 145.003906 " fill-opacity="1" fill-rule="nonzero"/><path fill="#ffffff" d="M 90.230469 160.441406 L 101.167969 160.441406 L 101.167969 171.878906 L 90.230469 171.878906 Z M 90.230469 160.441406 " fill-opacity="1" fill-rule="nonzero"/><path fill="#ffffff" d="M 106.464844 160.890625 L 117.40625 160.890625 L 117.40625 172.328125 L 106.464844 172.328125 Z M 106.464844 160.890625 " fill-opacity="1" fill-rule="nonzero"/><path fill="#b2926b" d="M 156.171875 231.476562 L 177.902344 231.476562 L 177.902344 254.003906 L 156.171875 254.003906 Z M 156.171875 231.476562 " fill-opacity="1" fill-rule="nonzero"/><path fill="#b2926b" d="M 188.492188 232.425781 L 210.222656 232.425781 L 210.222656 254.953125 L 188.492188 254.953125 Z M 188.492188 232.425781 " fill-opacity="1" fill-rule="nonzero"/><path fill="#b2926b" d="M 156.171875 262.996094 L 177.902344 262.996094 L 177.902344 285.527344 L 156.171875 285.527344 Z M 156.171875 262.996094 " fill-opacity="1" fill-rule="nonzero"/><path fill="#b2926b" d="M 188.492188 263.945312 L 210.222656 263.945312 L 210.222656 286.476562 L 188.492188 286.476562 Z M 188.492188 263.945312 " fill-opacity="1" fill-rule="nonzero"/></svg>