<svg xmlns="http://www.w3.org/2000/svg" data-name="Layer 1" viewBox="0 0 512 512"><path fill="#B2926B" d="M86.485 143.253h258.161a6 6 0 0 0 0-12H86.485a6 6 0 0 0 0 12ZM344.646 192.86H168.627a6 6 0 0 0 0 12h176.019a6 6 0 1 0 0-12ZM255.463 254.467h-86.836a6 6 0 0 0 0 12h86.836a6 6 0 1 0 0-12ZM213.219 316.073H86.485a6 6 0 0 0 0 12h126.734a6 6 0 0 0 0-12ZM212.045 377.68H86.485a6 6 0 0 0 0 12h125.56a6 6 0 1 0 0-12ZM108.428 268.507c-.052 0-.1-.008-.155-.008s-.1.006-.154.008a15.8 15.8 0 0 1-15.634-15.78 6 6 0 0 0-12 0 27.831 27.831 0 0 0 21.788 27.128v7.623a6 6 0 0 0 12 0v-7.623a27.786 27.786 0 0 0-6-54.917 15.788 15.788 0 1 1 15.789-15.788 6 6 0 1 0 12 0 27.831 27.831 0 0 0-21.789-27.128v-6.631a6 6 0 0 0-12 0v6.631a27.786 27.786 0 0 0 6 54.916 15.785 15.785 0 0 1 .155 31.569Z"/><path fill="#B2926B" d="M397.584 262.847V68.806a29.5 29.5 0 0 0-29.469-29.47h-76.662A35.387 35.387 0 0 0 256.637 10H174.5a35.317 35.317 0 0 0-34.821 29.336H63.016a29.5 29.5 0 0 0-29.469 29.47v383.322A29.5 29.5 0 0 0 63.016 481.6h222.957v-.843a123.329 123.329 0 1 0 111.611-217.91ZM157.991 28.833A23.178 23.178 0 0 1 174.5 22h82.142a23.337 23.337 0 0 1 0 46.673H174.5a23.339 23.339 0 0 1-16.5-39.84ZM63.016 469.6a17.489 17.489 0 0 1-17.469-17.469V68.806a17.49 17.49 0 0 1 17.469-17.47h76.662A35.387 35.387 0 0 0 174.5 80.673h82.142a35.349 35.349 0 0 0 34.821-29.337h76.657a17.489 17.489 0 0 1 17.469 17.47v190.316A123.3 123.3 0 0 0 271.87 469.6ZM355.107 490a111.346 111.346 0 1 1 111.346-111.346A111.472 111.472 0 0 1 355.107 490Z"/><path fill="#B2926B" d="m397.8 343.12-58.342 58.341-27.049-27.049a6 6 0 0 0-8.486 8.484l31.292 31.292a6 6 0 0 0 8.486 0l62.587-62.588a6 6 0 1 0-8.485-8.484Z"/></svg>