<?xml version="1.0" encoding="UTF-8"?>
<svg xmlns="http://www.w3.org/2000/svg" width="54" height="46" viewBox="0 0 54 46" fill="none">
  <path d="M45.75 26.625C45.75 27.1223 45.5525 27.5992 45.2008 27.9508C44.8492 28.3025 44.3723 28.5 43.875 28.5C43.3777 28.5 42.9008 28.3025 42.5492 27.9508C42.1975 27.5992 42 27.1223 42 26.625C42 26.1277 42.1975 25.6508 42.5492 25.2992C42.9008 24.9475 43.3777 24.75 43.875 24.75C44.3723 24.75 44.8492 24.9475 45.2008 25.2992C45.5525 25.6508 45.75 26.1277 45.75 26.625ZM10.125 24.75C9.62772 24.75 9.15081 24.9475 8.79918 25.2992C8.44754 25.6508 8.25 26.1277 8.25 26.625C8.25 27.1223 8.44754 27.5992 8.79918 27.9508C9.15081 28.3025 9.62772 28.5 10.125 28.5C10.6223 28.5 11.0992 28.3025 11.4508 27.9508C11.8025 27.5992 12 27.1223 12 26.625C12 26.1277 11.8025 25.6508 11.4508 25.2992C11.0992 24.9475 10.6223 24.75 10.125 24.75ZM48.9244 15.375L49.7119 17.4731C51.8494 19.1925 53.25 21.7987 53.25 24.75V41.625C53.25 43.6931 51.5681 45.375 49.5 45.375H45.75C43.6819 45.375 42 43.6931 42 41.625V37.875H12V41.625C12 43.6931 10.3181 45.375 8.25 45.375H4.5C2.43187 45.375 0.75 43.6931 0.75 41.625V24.75C0.75 21.7969 2.14875 19.1906 4.29 17.4713L5.0775 15.375H0.75V11.625H6.375V11.91L9.7875 2.80875C10.0575 2.09515 10.5379 1.48037 11.165 1.04577C11.7921 0.611183 12.5364 0.377272 13.2994 0.375H40.7006C42.255 0.375 43.6631 1.35187 44.2125 2.80687L47.625 11.9081V11.625H53.25V15.375H48.9244ZM8.25 37.875H4.5V41.625H8.25V37.875ZM49.5 37.875H45.75V41.625H49.5V37.875ZM49.5 34.125V24.75C49.5 21.6487 46.9763 19.125 43.875 19.125H10.125C7.02375 19.125 4.5 21.6487 4.5 24.75V34.125H49.5ZM43.875 15.375H44.9194L40.7006 4.125H13.2994L9.08062 15.375H43.875ZM15.75 28.5H38.25V24.75H15.75V28.5Z" fill="#B2926B"></path>
</svg>
