<svg xmlns="http://www.w3.org/2000/svg" width="512" height="512" viewBox="0 0 512.746 512.746"><path fill="#B2926B" d="m507.819 182.697-59.008-59.009a7.5 7.5 0 0 0-10.607 10.607l59.009 59.009c.44.44.533.943.533 1.287s-.093.847-.534 1.287l-24.446 24.446c-.44.441-.943.534-1.287.534s-.847-.093-1.287-.534l-96.733-96.731a1.823 1.823 0 0 1 0-2.575l24.447-24.447a1.82 1.82 0 0 1 2.574 0l12.852 12.852a7.5 7.5 0 0 0 10.607-10.607l-12.853-12.852c-6.56-6.56-17.23-6.556-23.788 0l-24.447 24.447c-5.117 5.117-6.222 12.732-3.353 18.951-17.26 13.206-42.859 11.164-65.525 9.352-2.126-.17-30.966-2.428-36.537-2.825-10.515-.752-22.923-1.517-35.475-1.517l-.631.001c-4.31.009-8.589.879-12.621 2.497-10.422.544-20.559 1.526-30.572 3.772-7.191 1.612-14.549-.48-19.671-5.604l-5.363-5.363c3.053-6.274 1.995-14.061-3.208-19.264l-24.447-24.447c-6.559-6.557-17.229-6.557-23.789 0L4.928 182.697A16.708 16.708 0 0 0 0 194.592c0 4.492 1.75 8.717 4.927 11.895l24.446 24.446a16.715 16.715 0 0 0 11.895 4.927c2.676 0 5.249-.634 7.569-1.806 0 0 21.693 21.115 24.428 23.857 3.734 3.743 4.374 9.713 5.114 16.625.392 3.65.796 7.425 1.712 11.178 2.935 12.038 8.16 23.573 15.53 34.287a7.5 7.5 0 0 0 12.358-8.502c-6.333-9.207-10.813-19.077-13.315-29.339-.68-2.787-1.015-5.913-1.369-9.223-.911-8.501-1.944-18.135-9.409-25.62-2.827-2.834-23.832-23.276-23.832-23.276l83.102-83.102 4.705 4.705c8.777 8.776 21.319 12.377 33.562 9.634a122.474 122.474 0 0 1 8.462-1.571c-3.28 6.009-4.852 12.783-4.413 19.508 1.223 18.705 17.084 33.69 36.112 34.117l13.509.298.239.002 16.17-.16c11.891 11.98 106.839 107.732 112.49 112.996 5.138 4.787 10.943 10.318 11.168 17.843.192 6.422-4.76 12.999-10.797 15.001-5.924 1.964-12.648.48-17.079-3.946l-91.745-91.745a7.5 7.5 0 0 0-10.607 10.607l111.169 111.168c4.716 6.721 3.772 15.909-2.285 21.567-6.432 6.008-16.893 5.665-23.328-.77L221.689 291.469a7.5 7.5 0 0 0-10.607 10.607l86.5 86.501c6.361 6.454 6.337 16.876-.082 23.294-6.445 6.447-16.938 6.448-23.389-.003l-86.396-86.425a7.5 7.5 0 0 0-10.607 10.607l40.624 40.719c3.124 3.123 4.844 7.275 4.844 11.692s-1.72 8.569-4.844 11.692c-6.447 6.449-16.938 6.447-23.384.002-.396-.396-39.823-39.845-63.716-63.986a7.5 7.5 0 0 0-10.662 10.55c23.919 24.169 63.373 63.644 63.77 64.041 12.297 12.295 32.303 12.295 44.6 0a31.356 31.356 0 0 0 8.38-15.033l26.788 26.75c6.148 6.147 14.224 9.222 22.3 9.222s16.151-3.074 22.3-9.222a31.357 31.357 0 0 0 8.385-15.055l3.394 3.384c12.08 12.082 31.894 12.584 44.168 1.117 11.773-10.997 13.397-29.01 3.777-41.899-.216-.289-1.567-1.677-1.567-1.677 3.979-.309 10.025-3.636 15.012-8.375.314-.298 31.688-31.861 32.165-32.439 14.008-17.122 22.213-37.178 23.731-57.998.387-5.297 2.617-10.193 6.241-13.752l21.822-21.126a16.8 16.8 0 0 0 6.244 1.202c4.492 0 8.717-1.75 11.895-4.927l24.446-24.446a16.715 16.715 0 0 0 4.927-11.895 16.721 16.721 0 0 0-4.929-11.894zm-368.531-59.104-96.733 96.733c-.44.44-.943.533-1.287.533s-.847-.093-1.287-.534l-24.446-24.446c-.441-.44-.534-.943-.534-1.287s.093-.847.534-1.287l96.731-96.733a1.82 1.82 0 0 1 2.575 0l24.447 24.447c.71.709.71 1.865 0 2.574zm293.654 121.451c-6.267 6.151-10.078 14.462-10.731 23.4-1.289 17.694-8.315 34.815-20.296 49.489-.487.532-2.799 2.938-12.762 13.01a31.669 31.669 0 0 0-2.714-6.834c-2.464-4.606-6.123-8.159-9.757-11.82L272.087 206.842c9.862-.362 20.323-.916 27.667-2.152.323.211.679.51.843.724 3.578 7.601 15.092 23.582 33.521 30.484a7.502 7.502 0 0 0 2.63.479 7.5 7.5 0 0 0 2.631-14.525c-12.874-4.822-22.313-16.596-25.238-22.885-2.475-5.317-9.638-10.422-15.966-9.229-24.813 4.675-51.283 3.151-76.261 2.601-11.323-.254-20.757-9.083-21.477-20.1-.374-5.71 1.814-11.555 6.003-16.034 4.047-4.329 9.484-6.818 14.919-6.829 12.295.011 24.588.732 35.007 1.477 5.521.395 11.038.834 16.556 1.272 4.555.362 9.109.724 13.665 1.062 2.027.15 4.093.315 6.19.483 24.417 1.949 54.688 4.357 76.566-12.974l84.305 84.303z"/></svg>