<?xml version="1.0" encoding="UTF-8"?>
<svg xmlns="http://www.w3.org/2000/svg" width="60" height="72" viewBox="0 0 60 72" fill="none">
  <path d="M16.8091 71.6835H59.6231V16.8093H16.8091V71.6835ZM19.6736 19.6736H56.7589V68.7438H19.6736V19.6736Z" fill="#B2926B"></path>
  <path d="M25.1006 11.2313L22.01 8.14069H54.422L51.3314 11.2313L53.3667 13.2666L60 6.63329L53.3667 0L51.3314 2.03531L54.422 5.12589H22.01L25.1006 2.03531L23.0653 0L16.432 6.63329L23.0653 13.2666L25.1006 11.2313Z" fill="#B2926B"></path>
  <path d="M11.2313 25.4022L13.2666 23.3669L6.63328 16.7336L0 23.3669L2.03531 25.4022L5.12589 22.3116V66.1809L2.11109 63.0151L0.07578 65.0504L6.70907 71.6836L13.3424 65.0504L11.2313 63.0151L8.14122 66.1809V22.3116L11.2313 25.4022Z" fill="#B2926B"></path>
</svg>
