<?xml version="1.0" encoding="UTF-8"?>
<svg xmlns="http://www.w3.org/2000/svg" width="60" height="60" viewBox="0 0 60 60" fill="none">
  <path d="M13.125 1.875C11.6902 1.87492 10.3097 2.42311 9.26576 3.40741C8.22186 4.3917 7.59355 5.7377 7.50938 7.17L7.5 7.5V58.125H11.25V7.5C11.2501 7.04075 11.4187 6.59749 11.7238 6.2543C12.029 5.91111 12.4495 5.69186 12.9056 5.63812L13.125 5.625H33.75C34.2092 5.62506 34.6525 5.79367 34.9957 6.09884C35.3389 6.40401 35.5581 6.82453 35.6119 7.28062L35.625 7.5V9.375H26.25C25.7908 9.37506 25.3475 9.54367 25.0043 9.84884C24.6611 10.154 24.4419 10.5745 24.3881 11.0306L24.375 11.25V16.875H18.75V20.625H54.375V16.875H50.625V11.25C50.6249 10.7908 50.4563 10.3475 50.1512 10.0043C49.846 9.66111 49.4255 9.44186 48.9694 9.38812L48.75 9.375H39.375V7.5C39.3751 6.06523 38.8269 4.68466 37.8426 3.64076C36.8583 2.59686 35.5123 1.96855 34.08 1.88437L33.75 1.875H13.125ZM37.5 54.375C37.0027 54.375 36.5258 54.5725 36.1742 54.9242C35.8225 55.2758 35.625 55.7527 35.625 56.25C35.625 56.7473 35.8225 57.2242 36.1742 57.5758C36.5258 57.9275 37.0027 58.125 37.5 58.125C37.9973 58.125 38.4742 57.9275 38.8258 57.5758C39.1775 57.2242 39.375 56.7473 39.375 56.25C39.375 55.7527 39.1775 55.2758 38.8258 54.9242C38.4742 54.5725 37.9973 54.375 37.5 54.375ZM46.875 54.375C46.3777 54.375 45.9008 54.5725 45.5492 54.9242C45.1975 55.2758 45 55.7527 45 56.25C45 56.7473 45.1975 57.2242 45.5492 57.5758C45.9008 57.9275 46.3777 58.125 46.875 58.125C47.3723 58.125 47.8492 57.9275 48.2008 57.5758C48.5525 57.2242 48.75 56.7473 48.75 56.25C48.75 55.7527 48.5525 55.2758 48.2008 54.9242C47.8492 54.5725 47.3723 54.375 46.875 54.375ZM28.125 54.375C27.6277 54.375 27.1508 54.5725 26.7992 54.9242C26.4475 55.2758 26.25 55.7527 26.25 56.25C26.25 56.7473 26.4475 57.2242 26.7992 57.5758C27.1508 57.9275 27.6277 58.125 28.125 58.125C28.6223 58.125 29.0992 57.9275 29.4508 57.5758C29.8025 57.2242 30 56.7473 30 56.25C30 55.7527 29.8025 55.2758 29.4508 54.9242C29.0992 54.5725 28.6223 54.375 28.125 54.375ZM37.5 46.875C37.0027 46.875 36.5258 47.0725 36.1742 47.4242C35.8225 47.7758 35.625 48.2527 35.625 48.75C35.625 49.2473 35.8225 49.7242 36.1742 50.0758C36.5258 50.4275 37.0027 50.625 37.5 50.625C37.9973 50.625 38.4742 50.4275 38.8258 50.0758C39.1775 49.7242 39.375 49.2473 39.375 48.75C39.375 48.2527 39.1775 47.7758 38.8258 47.4242C38.4742 47.0725 37.9973 46.875 37.5 46.875ZM46.875 46.875C46.3777 46.875 45.9008 47.0725 45.5492 47.4242C45.1975 47.7758 45 48.2527 45 48.75C45 49.2473 45.1975 49.7242 45.5492 50.0758C45.9008 50.4275 46.3777 50.625 46.875 50.625C47.3723 50.625 47.8492 50.4275 48.2008 50.0758C48.5525 49.7242 48.75 49.2473 48.75 48.75C48.75 48.2527 48.5525 47.7758 48.2008 47.4242C47.8492 47.0725 47.3723 46.875 46.875 46.875ZM28.125 46.875C27.6277 46.875 27.1508 47.0725 26.7992 47.4242C26.4475 47.7758 26.25 48.2527 26.25 48.75C26.25 49.2473 26.4475 49.7242 26.7992 50.0758C27.1508 50.4275 27.6277 50.625 28.125 50.625C28.6223 50.625 29.0992 50.4275 29.4508 50.0758C29.8025 49.7242 30 49.2473 30 48.75C30 48.2527 29.8025 47.7758 29.4508 47.4242C29.0992 47.0725 28.6223 46.875 28.125 46.875ZM37.5 39.375C37.0027 39.375 36.5258 39.5725 36.1742 39.9242C35.8225 40.2758 35.625 40.7527 35.625 41.25C35.625 41.7473 35.8225 42.2242 36.1742 42.5758C36.5258 42.9275 37.0027 43.125 37.5 43.125C37.9973 43.125 38.4742 42.9275 38.8258 42.5758C39.1775 42.2242 39.375 41.7473 39.375 41.25C39.375 40.7527 39.1775 40.2758 38.8258 39.9242C38.4742 39.5725 37.9973 39.375 37.5 39.375ZM46.875 39.375C46.3777 39.375 45.9008 39.5725 45.5492 39.9242C45.1975 40.2758 45 40.7527 45 41.25C45 41.7473 45.1975 42.2242 45.5492 42.5758C45.9008 42.9275 46.3777 43.125 46.875 43.125C47.3723 43.125 47.8492 42.9275 48.2008 42.5758C48.5525 42.2242 48.75 41.7473 48.75 41.25C48.75 40.7527 48.5525 40.2758 48.2008 39.9242C47.8492 39.5725 47.3723 39.375 46.875 39.375ZM28.125 39.375C27.6277 39.375 27.1508 39.5725 26.7992 39.9242C26.4475 40.2758 26.25 40.7527 26.25 41.25C26.25 41.7473 26.4475 42.2242 26.7992 42.5758C27.1508 42.9275 27.6277 43.125 28.125 43.125C28.6223 43.125 29.0992 42.9275 29.4508 42.5758C29.8025 42.2242 30 41.7473 30 41.25C30 40.7527 29.8025 40.2758 29.4508 39.9242C29.0992 39.5725 28.6223 39.375 28.125 39.375ZM37.5 31.875C37.0027 31.875 36.5258 32.0725 36.1742 32.4242C35.8225 32.7758 35.625 33.2527 35.625 33.75C35.625 34.2473 35.8225 34.7242 36.1742 35.0758C36.5258 35.4275 37.0027 35.625 37.5 35.625C37.9973 35.625 38.4742 35.4275 38.8258 35.0758C39.1775 34.7242 39.375 34.2473 39.375 33.75C39.375 33.2527 39.1775 32.7758 38.8258 32.4242C38.4742 32.0725 37.9973 31.875 37.5 31.875ZM46.875 31.875C46.3777 31.875 45.9008 32.0725 45.5492 32.4242C45.1975 32.7758 45 33.2527 45 33.75C45 34.2473 45.1975 34.7242 45.5492 35.0758C45.9008 35.4275 46.3777 35.625 46.875 35.625C47.3723 35.625 47.8492 35.4275 48.2008 35.0758C48.5525 34.7242 48.75 34.2473 48.75 33.75C48.75 33.2527 48.5525 32.7758 48.2008 32.4242C47.8492 32.0725 47.3723 31.875 46.875 31.875ZM28.125 31.875C27.6277 31.875 27.1508 32.0725 26.7992 32.4242C26.4475 32.7758 26.25 33.2527 26.25 33.75C26.25 34.2473 26.4475 34.7242 26.7992 35.0758C27.1508 35.4275 27.6277 35.625 28.125 35.625C28.6223 35.625 29.0992 35.4275 29.4508 35.0758C29.8025 34.7242 30 34.2473 30 33.75C30 33.2527 29.8025 32.7758 29.4508 32.4242C29.0992 32.0725 28.6223 31.875 28.125 31.875ZM37.5 24.375C37.0027 24.375 36.5258 24.5725 36.1742 24.9242C35.8225 25.2758 35.625 25.7527 35.625 26.25C35.625 26.7473 35.8225 27.2242 36.1742 27.5758C36.5258 27.9275 37.0027 28.125 37.5 28.125C37.9973 28.125 38.4742 27.9275 38.8258 27.5758C39.1775 27.2242 39.375 26.7473 39.375 26.25C39.375 25.7527 39.1775 25.2758 38.8258 24.9242C38.4742 24.5725 37.9973 24.375 37.5 24.375ZM28.125 24.375C27.6277 24.375 27.1508 24.5725 26.7992 24.9242C26.4475 25.2758 26.25 25.7527 26.25 26.25C26.25 26.7473 26.4475 27.2242 26.7992 27.5758C27.1508 27.9275 27.6277 28.125 28.125 28.125C28.6223 28.125 29.0992 27.9275 29.4508 27.5758C29.8025 27.2242 30 26.7473 30 26.25C30 25.7527 29.8025 25.2758 29.4508 24.9242C29.0992 24.5725 28.6223 24.375 28.125 24.375ZM46.875 24.375C46.3777 24.375 45.9008 24.5725 45.5492 24.9242C45.1975 25.2758 45 25.7527 45 26.25C45 26.7473 45.1975 27.2242 45.5492 27.5758C45.9008 27.9275 46.3777 28.125 46.875 28.125C47.3723 28.125 47.8492 27.9275 48.2008 27.5758C48.5525 27.2242 48.75 26.7473 48.75 26.25C48.75 25.7527 48.5525 25.2758 48.2008 24.9242C47.8492 24.5725 47.3723 24.375 46.875 24.375ZM28.125 13.125H46.875V16.875H28.125V13.125Z" fill="#B2926B"></path>
</svg>
