<?xml version="1.0" encoding="UTF-8"?>
<svg xmlns="http://www.w3.org/2000/svg" width="60" height="48" viewBox="0 0 60 48" fill="none">
  <g clip-path="url(#clip0_15_47)">
    <path d="M55.8006 19.4125V3.56552C55.7997 2.62003 55.4198 1.71377 54.7434 1.04523C54.0673 0.377233 53.1505 0.00105945 52.1943 0H7.80499C6.84865 0.00106122 5.93198 0.377233 5.25575 1.04523C4.57952 1.71376 4.19956 2.62001 4.19848 3.56552V19.4125C2.98452 19.7902 1.92344 20.54 1.16835 21.5529C0.413776 22.5663 0.00482239 23.7903 0 25.0488V38.1332C0.00107343 38.7635 0.254391 39.3679 0.705193 39.8135C1.156 40.2587 1.76728 40.5098 2.40429 40.5101H3.85443V44.9915C3.85497 45.6218 4.10883 46.2262 4.55962 46.6718C5.01044 47.1171 5.62118 47.3678 6.25873 47.3684H9.85822C10.4952 47.3678 11.1065 47.1171 11.5573 46.6718C12.0081 46.2262 12.2614 45.6218 12.2625 44.9915V40.5101H47.7366V44.9915C47.7376 45.6218 47.9908 46.2262 48.4418 46.6718C48.8924 47.1171 49.5038 47.3678 50.1407 47.3684H53.7404C54.378 47.3678 54.9891 47.117 55.4394 46.6712C55.8903 46.2262 56.1442 45.6218 56.1445 44.9915V40.5101H57.5956C58.2332 40.5098 58.8439 40.2587 59.2948 39.8135C59.7455 39.3679 59.9991 38.7635 60 38.1332V25.0488C59.9953 23.7903 59.5863 22.5657 58.8313 21.5523C58.0765 20.5395 57.0152 19.7902 55.8006 19.4125ZM6.60287 3.56552C6.60341 2.90919 7.14117 2.37755 7.80505 2.37702H52.1943C52.8581 2.37755 53.3953 2.90919 53.3959 3.56552V19.1069H50.0482C50.191 18.7259 50.2655 18.3237 50.2699 17.9184V14.4144C50.2686 13.469 49.8881 12.5627 49.2126 11.8942C48.5362 11.2256 47.6198 10.8495 46.6633 10.8489H34.3314C33.3755 10.8495 32.4591 11.2256 31.7826 11.8942C31.1065 12.5627 30.726 13.469 30.7249 14.4144V17.9184C30.7292 18.3237 30.8044 18.7259 30.9466 19.1069H29.0527C29.1954 18.7259 29.27 18.3237 29.2743 17.9184V14.4144C29.2732 13.469 28.8927 12.5627 28.2165 11.8942C27.5409 11.2256 26.6236 10.8495 25.6678 10.8489H13.3349C12.3785 10.8495 11.4619 11.2256 10.7862 11.8942C10.1099 12.5627 9.72944 13.469 9.72837 14.4144V17.9184C9.73266 18.3237 9.80725 18.7259 9.95002 19.1069H6.60224L6.60287 3.56552ZM33.1301 17.9184V14.4144C33.1307 13.7581 33.6688 13.226 34.3323 13.226H46.6642C47.328 13.226 47.8658 13.7581 47.8661 14.4144V17.9184C47.8658 18.5742 47.328 19.1063 46.6642 19.1069H34.3323C33.6688 19.1063 33.1307 18.5742 33.1301 17.9184ZM12.1342 17.9184V14.4144C12.1347 13.7581 12.6725 13.226 13.3364 13.226H25.6693C26.3331 13.226 26.8709 13.7581 26.8714 14.4144V17.9184C26.8709 18.5742 26.3331 19.1063 25.6693 19.1069H13.3364C12.6725 19.1063 12.1347 18.5742 12.1342 17.9184ZM9.86135 44.9915H6.25967V40.5101H9.85917L9.86135 44.9915ZM53.7436 44.9915H50.1414V40.5101H53.7407L53.7436 44.9915ZM57.5981 38.1332H2.40453V33.0429H57.5953L57.5981 38.1332ZM2.40453 30.6659V25.0488C2.4056 24.1033 2.7861 23.197 3.46232 22.5285C4.13801 21.86 5.05522 21.4838 6.01102 21.4833H53.989C54.9452 21.4838 55.8619 21.86 56.5383 22.5285C57.2138 23.197 57.5943 24.1033 57.5956 25.0488V30.6659H2.40453Z" fill="#B2926B"></path>
  </g>
  <defs>
    <clipPath id="clip0_15_47">
      <rect width="60" height="47.3684" fill="white"></rect>
    </clipPath>
  </defs>
</svg>
